<?xml version="1.0" encoding="utf-8"?>
<!DOCTYPE svg PUBLIC "-//W3C//DTD SVG 1.1//EN" "http://www.w3.org/Graphics/SVG/1.1/DTD/svg11.dtd">
<svg xmlns="http://www.w3.org/2000/svg" xmlns:xlink="http://www.w3.org/1999/xlink" version="1.1" baseProfile="full" width="76" height="76" viewBox="0 0 76.00 76.00" enable-background="new 0 0 76.00 76.00" xml:space="preserve">
	<rect x="18.5422" y="19" fill="#037050" fill-opacity="0.301961" stroke-linejoin="round" width="38.9157" height="38"/>
	<ellipse fill="#DC2D0A" fill-opacity="0.301961" stroke-linejoin="round" cx="46.4375" cy="37.625" rx="10.1875" ry="9.625"/>
	<path fill="#0F45C4" fill-opacity="0.301961" stroke-linejoin="round" d="M 51.0115,41.4488L 25.7445,26.414L 25.3575,55.8133L 51.0115,41.4488 Z "/>
	<g>
		<path fill="#000000" fill-opacity="1" stroke-linejoin="round" d="M 25.3655,34.303L 23.2723,36.2568L 23.6624,37.3928C 23.7597,37.6697 23.8539,37.8569 23.9449,37.9544C 24.0169,38.0316 24.1176,38.0645 24.2469,38.0533C 24.3762,38.042 24.5731,37.9289 24.8376,37.714L 24.9831,37.8699L 23.3931,39.354L 23.2475,39.198C 23.428,38.9582 23.5214,38.7782 23.5279,38.6582C 23.5426,38.415 23.4544,38.033 23.2632,37.5123L 21.1976,31.4814L 21.2756,31.4086L 27.1043,34.0458C 27.565,34.2495 27.9017,34.3468 28.1143,34.3377C 28.3268,34.3285 28.544,34.2318 28.7658,34.0476L 28.9113,34.2036L 26.8827,36.097L 26.7371,35.9411C 26.9327,35.7387 27.0389,35.5739 27.0554,35.4468C 27.072,35.3196 27.0401,35.2129 26.9597,35.1268C 26.8528,35.0123 26.633,34.8786 26.3002,34.7256L 25.3655,34.303 Z M 25.0509,34.1589L 22.0925,32.8188L 23.1587,35.925L 25.0509,34.1589 Z "/>
		<path fill="#000000" fill-opacity="1" stroke-linejoin="round" d="M 26.8598,29.4066L 27.6672,30.2717C 27.4092,29.4334 27.4272,28.877 27.7212,28.6026C 27.8552,28.4775 28.0099,28.4209 28.1852,28.4328C 28.3605,28.4448 28.5057,28.5125 28.621,28.636C 28.7233,28.7456 28.7803,28.8657 28.7919,28.9962C 28.8035,29.1267 28.7687,29.2299 28.6875,29.3057C 28.6087,29.3792 28.466,29.4152 28.2593,29.4136C 28.0526,29.4119 27.9228,29.4358 27.87,29.485C 27.8245,29.5275 27.8004,29.601 27.7976,29.7054C 27.787,29.922 27.8402,30.2143 27.9572,30.5824L 29.4799,32.2138C 29.6512,32.3974 29.8057,32.5132 29.9432,32.5611C 30.0371,32.595 30.1442,32.5901 30.2644,32.5463C 30.3846,32.5025 30.5252,32.4055 30.686,32.2554L 30.8315,32.4114L 29.038,34.0853L 28.8925,33.9294C 29.0696,33.7641 29.1761,33.6145 29.2122,33.4805C 29.2383,33.3831 29.2238,33.2796 29.1686,33.17C 29.143,33.1165 29.0388,32.9918 28.8561,32.7961L 27.546,31.3924C 27.1814,31.0017 26.9564,30.7762 26.8712,30.7159C 26.7861,30.6556 26.7065,30.6273 26.6324,30.631C 26.5584,30.6348 26.4909,30.6651 26.43,30.7219C 26.3569,30.7901 26.2919,30.8866 26.2349,31.0112L 26.054,30.8882L 26.7063,29.5499L 26.8598,29.4066 Z "/>
		<path fill="#000000" fill-opacity="1" stroke-linejoin="round" d="M 30.2753,28.8451C 30.7497,29.3583 31.2518,29.639 31.7816,29.6871C 32.3121,29.7361 32.752,29.5975 33.1013,29.2715C 33.3344,29.054 33.4884,28.8126 33.5632,28.5475C 33.6379,28.2824 33.5886,27.9397 33.4152,27.5194L 33.5592,27.5173C 33.8437,27.9296 33.98,28.3876 33.9682,28.8911C 33.9563,29.3946 33.7566,29.8271 33.3692,30.1888C 32.9484,30.5815 32.4377,30.7561 31.837,30.7126C 31.2363,30.6691 30.6813,30.3744 30.1718,29.8285C 29.6206,29.238 29.3443,28.6342 29.3428,28.017C 29.3412,27.3998 29.5724,26.8748 30.0362,26.4419C 30.4293,26.075 30.8709,25.9011 31.3608,25.9204C 31.8506,25.9396 32.2946,26.1624 32.6926,26.5889L 30.2753,28.8451 Z M 30.0569,28.6112L 31.6945,27.0828C 31.4715,26.8699 31.2964,26.7369 31.1693,26.6838C 30.971,26.5999 30.7699,26.5767 30.5662,26.614C 30.3625,26.6514 30.1912,26.735 30.0523,26.8646C 29.8387,27.064 29.7245,27.3248 29.7099,27.647C 29.6952,27.9692 29.8109,28.2906 30.0569,28.6112 Z "/>
		<path fill="#000000" fill-opacity="1" stroke-linejoin="round" d="M 36.7368,25.9194C 36.6338,26.5581 36.5552,26.9445 36.5011,27.0787C 36.4203,27.2787 36.2991,27.4542 36.1374,27.605C 35.8856,27.8401 35.6002,27.9499 35.2812,27.9346C 34.9621,27.9193 34.6752,27.7751 34.4205,27.5022C 34.2598,27.33 34.1601,27.1434 34.1214,26.9424C 34.0673,26.6662 34.1026,26.3254 34.2274,25.9201C 34.3522,25.5149 34.6239,24.9095 35.0424,24.1039L 34.9184,23.9711C 34.6045,23.6349 34.33,23.4591 34.0946,23.4439C 33.8593,23.4287 33.6288,23.5265 33.4029,23.7373C 33.2315,23.8973 33.1357,24.0673 33.1153,24.2474C 33.0933,24.4306 33.1342,24.5778 33.2381,24.6891L 33.4536,24.9029C 33.5627,25.0199 33.618,25.137 33.6195,25.2541C 33.621,25.3713 33.5746,25.4739 33.4804,25.5618C 33.3894,25.6467 33.2842,25.683 33.1647,25.6706C 33.0452,25.6583 32.9321,25.5948 32.8252,25.4803C 32.6212,25.2618 32.5481,24.9542 32.6058,24.5577C 32.6635,24.1611 32.8991,23.7698 33.3125,23.3839C 33.6293,23.0883 33.9381,22.8981 34.239,22.8133C 34.4661,22.7488 34.6946,22.7673 34.9246,22.8688C 35.074,22.9345 35.3072,23.1371 35.6241,23.4766L 36.7352,24.667C 37.0475,25.0017 37.2455,25.2003 37.329,25.2629C 37.4125,25.3256 37.4815,25.3555 37.5358,25.3526C 37.5902,25.3498 37.6372,25.3298 37.677,25.2926C 37.7193,25.2532 37.7498,25.2118 37.7686,25.1684C 37.8003,25.0917 37.8412,24.9205 37.8912,24.655L 38.0436,24.8182C 38.0895,25.4472 37.9805,25.8848 37.7165,26.1312C 37.5906,26.2487 37.4476,26.2971 37.2876,26.2762C 37.1275,26.2554 36.9439,26.1364 36.7368,25.9194 Z M 36.5048,25.6708L 35.2607,24.3379C 34.9898,24.8765 34.8242,25.234 34.7639,25.4103C 34.6524,25.7241 34.6072,25.9855 34.6283,26.1946C 34.6494,26.4036 34.7274,26.5804 34.8624,26.725C 35.0337,26.9086 35.2348,27.0059 35.4655,27.017C 35.6963,27.0281 35.888,26.9624 36.0407,26.8199C 36.2486,26.6258 36.4033,26.2428 36.5048,25.6708 Z "/>
	</g>
	<g>
		<path fill="#000000" fill-opacity="1" stroke-linejoin="round" d="M 24.8265,44.2804L 26.547,46.0413L 26.3897,46.1713C 25.7536,45.7154 25.1872,45.4769 24.6906,45.4557C 24.194,45.4345 23.7462,45.5888 23.3473,45.9185C 23.0124,46.1954 22.7864,46.538 22.6695,46.946C 22.5525,47.3541 22.5841,47.8247 22.7642,48.3577C 22.9443,48.8907 23.2835,49.4587 23.7819,50.0615C 24.1925,50.5582 24.6234,50.9272 25.0745,51.1684C 25.5255,51.4097 25.9815,51.5034 26.4424,51.4496C 26.9032,51.3959 27.3262,51.2099 27.7111,50.8916C 28.0452,50.6154 28.281,50.2997 28.4184,49.9447C 28.5557,49.5896 28.6016,49.0727 28.5561,48.3939L 28.7432,48.3776C 28.8611,49.0456 28.835,49.6276 28.6647,50.1238C 28.4944,50.6199 28.1726,51.0637 27.6992,51.4551C 26.8458,52.1606 25.9091,52.3735 24.8891,52.0937C 24.1294,51.887 23.4717,51.4475 22.916,50.7753C 22.4685,50.2341 22.1698,49.6438 22.0197,49.0045C 21.8697,48.3652 21.8888,47.7579 22.0772,47.1827C 22.2655,46.6075 22.5931,46.1269 23.0599,45.741C 23.4236,45.4403 23.8512,45.228 24.343,45.104C 24.4895,45.0694 24.5853,45.0335 24.6303,44.9962C 24.6967,44.9414 24.736,44.8714 24.7483,44.7862C 24.7613,44.6702 24.735,44.545 24.6693,44.4104L 24.8265,44.2804 Z "/>
		<path fill="#000000" fill-opacity="1" stroke-linejoin="round" d="M 31.9007,46.9133C 31.7767,47.5305 31.6858,47.9026 31.6281,48.0296C 31.542,48.219 31.4175,48.381 31.2545,48.5158C 31.0006,48.7257 30.7186,48.8103 30.4086,48.7696C 30.0985,48.729 29.8245,48.5648 29.5867,48.2771C 29.4366,48.0955 29.3464,47.9048 29.3163,47.7048C 29.2738,47.43 29.3208,47.0991 29.4574,46.7123C 29.594,46.3255 29.881,45.7545 30.3183,44.9993L 30.2026,44.8593C 29.9095,44.5048 29.6487,44.3106 29.4201,44.2769C 29.1916,44.2431 28.9634,44.3203 28.7358,44.5085C 28.5629,44.6514 28.4633,44.8102 28.4368,44.9849C 28.4085,45.1626 28.4429,45.31 28.5399,45.4273L 28.7417,45.654C 28.8437,45.7773 28.8932,45.8964 28.8903,46.0113C 28.8874,46.1262 28.8384,46.2229 28.7434,46.3014C 28.6516,46.3773 28.5479,46.4043 28.432,46.3826C 28.3162,46.3609 28.2083,46.2896 28.1085,46.1689C 27.9181,45.9385 27.8583,45.6315 27.9292,45.2478C 28.0001,44.8641 28.244,44.4999 28.6609,44.1553C 28.9803,43.8912 29.288,43.7297 29.5841,43.6709C 29.8076,43.626 30.0294,43.6625 30.2495,43.7804C 30.3926,43.8567 30.6121,44.0738 30.908,44.4318L 31.9456,45.6868C 32.2373,46.0396 32.4226,46.25 32.5016,46.3181C 32.5806,46.3861 32.6466,46.4209 32.6996,46.4225C 32.7526,46.4241 32.7992,46.4083 32.8394,46.3751C 32.8819,46.3399 32.9132,46.3018 32.9331,46.2609C 32.9668,46.1883 33.013,46.024 33.0716,45.7679L 33.2139,45.9401C 33.2352,46.5596 33.1128,46.9794 32.8466,47.1995C 32.7197,47.3044 32.5787,47.3403 32.4237,47.307C 32.2686,47.2737 32.0943,47.1425 31.9007,46.9133 Z M 31.684,46.6512L 30.5222,45.246C 30.2385,45.7516 30.0639,46.0884 29.9986,46.2562C 29.8785,46.5545 29.8248,46.8069 29.8376,47.0133C 29.8503,47.2197 29.9197,47.3991 30.0458,47.5515C 30.2058,47.7451 30.3979,47.8565 30.6221,47.886C 30.8464,47.9154 31.0355,47.8664 31.1895,47.7391C 31.3991,47.5658 31.564,47.2032 31.684,46.6512 Z "/>
		<path fill="#000000" fill-opacity="1" stroke-linejoin="round" d="M 30.1943,39.5659L 34.2723,44.4985C 34.4542,44.7186 34.5905,44.8517 34.6811,44.8979C 34.7717,44.9441 34.8645,44.9593 34.9596,44.9434C 35.0547,44.9275 35.1903,44.8467 35.3664,44.7011L 35.5023,44.8656L 33.7726,46.2956L 33.6366,46.1312C 33.8078,45.9897 33.9109,45.8763 33.9459,45.7911C 33.981,45.7059 33.9844,45.6104 33.9563,45.5047C 33.9282,45.3989 33.8238,45.2369 33.6433,45.0185L 30.7887,41.5657C 30.4616,41.17 30.2522,40.9338 30.1603,40.8569C 30.0685,40.78 29.9896,40.74 29.9236,40.7369C 29.8576,40.7338 29.7959,40.7559 29.7386,40.8033C 29.6756,40.8555 29.6134,40.9429 29.5522,41.0656L 29.3548,40.952L 30.0273,39.704L 30.1943,39.5659 Z "/>
		<path fill="#000000" fill-opacity="1" stroke-linejoin="round" d="M 37.783,40.5797C 38.1099,41.1701 38.2362,41.704 38.162,42.1813C 38.0877,42.6585 37.8815,43.037 37.5433,43.3166C 37.1411,43.6491 36.6467,43.7652 36.0599,43.665C 35.4731,43.5648 34.9355,43.2193 34.447,42.6284C 33.9726,42.0546 33.75,41.4544 33.7793,40.8276C 33.8085,40.2009 34.0508,39.6992 34.5061,39.3228C 34.8477,39.0404 35.208,38.9047 35.5872,38.9156C 35.9664,38.9264 36.2417,39.0355 36.413,39.2427C 36.498,39.3455 36.5359,39.4539 36.5269,39.5681C 36.5179,39.6822 36.4581,39.785 36.3475,39.8764C 36.1993,39.999 36.057,40.0279 35.9208,39.9632C 35.8038,39.9634 35.671,39.8875 35.5227,39.7355C 35.3743,39.5836 35.2205,39.5013 35.0612,39.4888C 34.9049,39.4782 34.7489,39.5372 34.5933,39.6659C 34.3419,39.8738 34.2203,40.1386 34.2286,40.4605C 34.2384,40.8877 34.419,41.3137 34.7701,41.7384C 35.1276,42.1709 35.5485,42.4656 36.0326,42.6226C 36.5167,42.7795 36.9381,42.7097 37.2968,42.4132C 37.5532,42.2012 37.7232,41.9382 37.8067,41.624C 37.8532,41.3866 37.8042,41.0422 37.6598,40.5907L 37.783,40.5797 Z "/>
		<path fill="#000000" fill-opacity="1" stroke-linejoin="round" d="M 39.5201,35.3159L 41.4231,37.6178C 41.7516,38.0152 41.9617,38.2509 42.0534,38.3251C 42.145,38.3993 42.2255,38.4383 42.2949,38.4422C 42.3643,38.4461 42.4253,38.4264 42.4777,38.383C 42.5514,38.3221 42.6157,38.2307 42.6708,38.1088L 42.8571,38.2315L 42.1834,39.4805L 42.0175,39.6176L 41.375,38.8405C 41.3512,39.4354 41.2953,39.8435 41.2073,40.0647C 41.1193,40.286 40.9856,40.4708 40.8062,40.6191C 40.6064,40.7843 40.3845,40.8686 40.1405,40.8721C 39.8966,40.8755 39.6693,40.8082 39.4587,40.6702C 39.2481,40.5322 39.0026,40.2937 38.7222,39.9545L 37.3799,38.3309C 37.2334,38.1536 37.1155,38.0449 37.0264,38.0047C 36.9373,37.9644 36.845,37.9528 36.7495,37.9698C 36.6539,37.9868 36.522,38.067 36.3538,38.2104L 36.2179,38.046L 37.3972,37.071L 39.4266,39.5257C 39.7098,39.8683 39.9541,40.0444 40.1593,40.0542C 40.3646,40.064 40.5499,40.0005 40.7154,39.8638C 40.8284,39.7703 40.9266,39.6285 41.0101,39.4385C 41.0935,39.2484 41.15,38.9703 41.1796,38.6041L 39.5028,36.5759C 39.3194,36.3541 39.1599,36.2336 39.0242,36.2146C 38.8886,36.1956 38.706,36.2759 38.4767,36.4554L 38.3407,36.291L 39.5201,35.3159 Z "/>
		<path fill="#000000" fill-opacity="1" stroke-linejoin="round" d="M 39.7866,31.6357L 43.8645,36.5682C 44.0465,36.7883 44.1828,36.9215 44.2733,36.9677C 44.3639,37.0139 44.4568,37.029 44.5519,37.0131C 44.647,36.9972 44.7825,36.9165 44.9586,36.7709L 45.0946,36.9353L 43.3648,38.3654L 43.2289,38.201C 43.4001,38.0594 43.5032,37.9461 43.5382,37.8609C 43.5732,37.7757 43.5767,37.6802 43.5485,37.5745C 43.5204,37.4687 43.4161,37.3066 43.2355,37.0883L 40.381,33.6354C 40.0539,33.2398 39.8444,33.0035 39.7526,32.9267C 39.6608,32.8498 39.5818,32.8098 39.5159,32.8067C 39.4499,32.8035 39.3882,32.8257 39.3309,32.8731C 39.2678,32.9252 39.2057,33.0127 39.1444,33.1354L 38.947,33.0217L 39.6195,31.7738L 39.7866,31.6357 Z "/>
		<path fill="#000000" fill-opacity="1" stroke-linejoin="round" d="M 47.1539,34.3029C 47.0299,34.9201 46.9391,35.2922 46.8814,35.4192C 46.7953,35.6086 46.6707,35.7707 46.5078,35.9054C 46.2539,36.1153 45.9719,36.1999 45.6618,36.1593C 45.3518,36.1186 45.0778,35.9544 44.8399,35.6667C 44.6898,35.4852 44.5997,35.2944 44.5695,35.0945C 44.5271,34.8196 44.5741,34.4888 44.7107,34.1019C 44.8473,33.7151 45.1342,33.1441 45.5716,32.389L 45.4558,32.249C 45.1627,31.8944 44.9019,31.7003 44.6734,31.6665C 44.4448,31.6327 44.2167,31.7099 43.989,31.8982C 43.8162,32.041 43.7165,32.1998 43.69,32.3746C 43.6618,32.5522 43.6961,32.6996 43.7931,32.817L 43.995,33.0436C 44.097,33.167 44.1465,33.2861 44.1435,33.4009C 44.1406,33.5158 44.0916,33.6125 43.9966,33.691C 43.9049,33.7669 43.8011,33.7939 43.6853,33.7722C 43.5694,33.7505 43.4616,33.6793 43.3618,33.5585C 43.1713,33.3282 43.1115,33.0211 43.1824,32.6374C 43.2533,32.2537 43.4972,31.8895 43.9141,31.5449C 44.2335,31.2808 44.5413,31.1194 44.8374,31.0606C 45.0608,31.0157 45.2826,31.0521 45.5028,31.17C 45.6459,31.2463 45.8654,31.4635 46.1613,31.8214L 47.1988,33.0764C 47.4905,33.4292 47.6759,33.6397 47.7549,33.7077C 47.8339,33.7757 47.8999,33.8106 47.9529,33.8121C 48.0059,33.8137 48.0525,33.7979 48.0926,33.7647C 48.1352,33.7295 48.1664,33.6914 48.1864,33.6505C 48.2201,33.5779 48.2663,33.4136 48.3248,33.1576L 48.4671,33.3297C 48.4885,33.9492 48.3661,34.369 48.0999,34.5891C 47.973,34.6941 47.832,34.7299 47.6769,34.6966C 47.5219,34.6633 47.3475,34.5321 47.1539,34.3029 Z M 46.9373,34.0409L 45.7755,32.6356C 45.4917,33.1412 45.3172,33.478 45.2519,33.6459C 45.1317,33.9441 45.0781,34.1965 45.0908,34.4029C 45.1036,34.6093 45.173,34.7887 45.299,34.9412C 45.459,35.1347 45.6511,35.2462 45.8754,35.2756C 46.0996,35.305 46.2887,35.2561 46.4427,35.1288C 46.6524,34.9554 46.8172,34.5928 46.9373,34.0409 Z "/>
		<path fill="#000000" fill-opacity="1" stroke-linejoin="round" d="M 45.97,27.9076L 46.9895,29.1408L 47.8114,28.4613L 48.0153,28.7079L 47.1934,29.3874L 49.1984,31.8126C 49.3987,32.0549 49.5667,32.191 49.7024,32.2209C 49.8381,32.2507 49.9575,32.223 50.0607,32.1377C 50.1459,32.0672 50.2112,31.9783 50.2567,31.8707C 50.3023,31.7632 50.3135,31.6504 50.2905,31.5325L 50.4477,31.4025C 50.5608,31.7228 50.586,32.013 50.5233,32.2732C 50.4605,32.5333 50.342,32.7355 50.1675,32.8798C 50.0488,32.9779 49.9038,33.039 49.7327,33.063C 49.5615,33.087 49.3951,33.0563 49.2335,32.9708C 49.0718,32.8853 48.8791,32.7073 48.6554,32.4366L 46.5644,29.9074L 45.9354,30.4274L 45.8388,30.3105C 45.9494,30.1225 46.0304,29.8915 46.0818,29.6176C 46.1332,29.3438 46.1389,29.0575 46.0989,28.759C 46.0763,28.6033 46.0072,28.3411 45.8914,27.9726L 45.97,27.9076 Z "/>
		<path fill="#000000" fill-opacity="1" stroke-linejoin="round" d="M 49.795,26.6829C 50.3257,26.2442 50.9247,26.1015 51.592,26.2548C 52.1614,26.3881 52.6379,26.6869 53.0216,27.151C 53.2914,27.4773 53.4891,27.8695 53.615,28.3278C 53.7408,28.786 53.7419,29.2093 53.6183,29.5976C 53.4947,29.986 53.2711,30.3139 52.9476,30.5813C 52.4194,31.0181 51.8192,31.1459 51.147,30.965C 50.5789,30.8132 50.1052,30.5079 49.7257,30.0489C 49.4496,29.7149 49.2547,29.317 49.1411,28.8552C 49.0275,28.3933 49.0354,27.9759 49.1648,27.603C 49.2942,27.23 49.5043,26.9233 49.795,26.6829 Z M 49.8785,27.0291C 49.7417,27.1422 49.6392,27.2983 49.5709,27.4975C 49.5026,27.6967 49.5136,27.9377 49.604,28.2205C 49.6944,28.5033 49.8777,28.8117 50.1538,29.1457C 50.5991,29.6843 51.0858,30.0637 51.6138,30.2838C 52.1419,30.504 52.5738,30.4752 52.9096,30.1976C 53.1602,29.9904 53.278,29.7117 53.2629,29.3616C 53.2478,29.0115 53.0233,28.574 52.5893,28.049C 52.047,27.3931 51.4846,26.9888 50.902,26.8361C 50.5047,26.7291 50.1635,26.7935 49.8785,27.0291 Z "/>
		<path fill="#000000" fill-opacity="1" stroke-linejoin="round" d="M 53.0543,23.9884L 53.8083,24.9004C 53.5882,24.0588 53.6264,23.5155 53.9228,23.2703C 54.058,23.1586 54.2107,23.1156 54.3809,23.1414C 54.5511,23.1672 54.69,23.2452 54.7976,23.3754C 54.8932,23.491 54.9442,23.6131 54.9507,23.7419C 54.9572,23.8706 54.9194,23.9688 54.8375,24.0365C 54.7581,24.1022 54.6178,24.1259 54.4166,24.1077C 54.2154,24.0895 54.0882,24.1024 54.035,24.1464C 53.9891,24.1844 53.9628,24.2543 53.9562,24.3564C 53.9379,24.5677 53.9788,24.8582 54.0791,25.228L 55.501,26.948C 55.661,27.1415 55.8071,27.2673 55.9392,27.3253C 56.0294,27.3661 56.1338,27.3698 56.2525,27.3366C 56.3712,27.3033 56.5116,27.2197 56.6738,27.0856L 56.8097,27.25L 55.0013,28.7451L 54.8654,28.5807C 55.0439,28.4331 55.1532,28.2951 55.1933,28.1668C 55.2224,28.0736 55.2121,27.9711 55.1625,27.8593C 55.1395,27.8048 55.0427,27.6744 54.872,27.468L 53.6487,25.9882C 53.3081,25.5763 53.0975,25.3374 53.0168,25.2715C 52.9361,25.2055 52.8597,25.1714 52.7874,25.1691C 52.7152,25.1669 52.6484,25.1911 52.587,25.2419C 52.5133,25.3028 52.4464,25.392 52.3863,25.5094L 52.2147,25.3745L 52.8995,24.1164L 53.0543,23.9884 Z "/>
	</g>
</svg>
